# Blender 3.4.1
# www.blender.org
mtllib LabelPlaquePlate.mtl
o Plaque
v -3.000000 1.000000 -0.200000
v -3.000000 2.000000 -0.200000
v -3.000000 2.000000 0.200000
v -3.076120 1.617316 -0.200000
v -3.076120 1.617316 0.200000
v -3.292893 1.292893 -0.200000
v -3.292893 1.292893 0.200000
v -3.617316 1.076120 -0.200000
v -3.617316 1.076120 0.200000
v -4.000000 1.000000 -0.200000
v -4.000000 1.000000 0.200000
v 0.000000 2.000000 -0.200000
v 0.000000 2.000000 0.200000
v 0.000000 1.000000 -0.200000
v 0.000000 0.000000 -0.200000
v -3.000000 0.000000 -0.200000
v -4.000000 0.000000 -0.200000
v -4.000000 -0.000000 0.200000
v 3.000000 1.000000 -0.200000
v 3.000000 2.000000 -0.200000
v 3.000000 2.000000 0.200000
v 3.076120 1.617316 -0.200000
v 3.076120 1.617316 0.200000
v 3.292893 1.292893 -0.200000
v 3.292893 1.292893 0.200000
v 3.617316 1.076120 -0.200000
v 3.617316 1.076120 0.200000
v 4.000000 1.000000 -0.200000
v 4.000000 1.000000 0.200000
v 3.000000 0.000000 -0.200000
v 4.000000 0.000000 -0.200000
v 4.000000 -0.000000 0.200000
v -3.000000 -1.000000 -0.200000
v -3.000000 -2.000000 -0.200000
v -3.000000 -2.000000 0.200000
v -3.076120 -1.617316 -0.200000
v -3.076120 -1.617316 0.200000
v -3.292893 -1.292893 -0.200000
v -3.292893 -1.292893 0.200000
v -3.617316 -1.076120 -0.200000
v -3.617316 -1.076120 0.200000
v -4.000000 -1.000000 -0.200000
v -4.000000 -1.000000 0.200000
v 0.000000 -2.000000 -0.200000
v 0.000000 -2.000000 0.200000
v 0.000000 -1.000000 -0.200000
v 3.000000 -1.000000 -0.200000
v 3.000000 -2.000000 -0.200000
v 3.000000 -2.000000 0.200000
v 3.076120 -1.617316 -0.200000
v 3.076120 -1.617316 0.200000
v 3.292893 -1.292893 -0.200000
v 3.292893 -1.292893 0.200000
v 3.617316 -1.076120 -0.200000
v 3.617316 -1.076120 0.200000
v 4.000000 -1.000000 -0.200000
v 4.000000 -1.000000 0.200000
vn -0.0000 -0.0000 -1.0000
vn -0.9808 0.1951 -0.0000
vn -0.8315 0.5556 -0.0000
vn -0.5556 0.8315 -0.0000
vn -0.1951 0.9808 -0.0000
vn -0.0000 1.0000 -0.0000
vn -1.0000 -0.0000 -0.0000
vn 0.9808 0.1951 -0.0000
vn 0.8315 0.5556 -0.0000
vn 0.5556 0.8315 -0.0000
vn 0.1951 0.9808 -0.0000
vn 1.0000 -0.0000 -0.0000
vn -0.9808 -0.1951 -0.0000
vn -0.8315 -0.5556 -0.0000
vn -0.5556 -0.8315 -0.0000
vn -0.1951 -0.9808 -0.0000
vn -0.0000 -1.0000 -0.0000
vn 0.9808 -0.1951 -0.0000
vn 0.8315 -0.5556 -0.0000
vn 0.5556 -0.8315 -0.0000
vn 0.1951 -0.9808 -0.0000
vt 0.750000 0.250000
vt 0.990000 0.250000
vt 0.750000 0.500000
vt 0.750000 1.000000
vt 0.971731 0.158156
vt 0.687500 0.500000
vt 0.687500 1.000000
vt 0.919706 0.080294
vt 0.625000 0.500000
vt 0.625000 1.000000
vt 0.841844 0.028269
vt 0.562500 0.500000
vt 0.562500 1.000000
vt 0.750000 0.010000
vt 0.500000 0.500000
vt 0.500000 1.000000
vt 0.750000 0.500000
vt 0.750000 1.000000
vt 0.750000 0.500000
vt 0.750000 0.500000
vt 0.750000 0.500000
vt 0.500000 0.500000
vt 0.750000 0.500000
vt 0.500000 1.000000
vt 0.750000 0.250000
vt 0.990000 0.250000
vt 0.750000 0.500000
vt 0.750000 1.000000
vt 0.971731 0.158156
vt 0.687500 0.500000
vt 0.687500 1.000000
vt 0.919706 0.080294
vt 0.625000 0.500000
vt 0.625000 1.000000
vt 0.841844 0.028269
vt 0.562500 0.500000
vt 0.562500 1.000000
vt 0.750000 0.010000
vt 0.500000 0.500000
vt 0.500000 1.000000
vt 0.750000 0.500000
vt 0.500000 0.500000
vt 0.750000 0.500000
vt 0.500000 1.000000
vt 0.750000 0.250000
vt 0.990000 0.250000
vt 0.750000 0.500000
vt 0.750000 1.000000
vt 0.971731 0.158156
vt 0.687500 0.500000
vt 0.687500 1.000000
vt 0.919706 0.080294
vt 0.625000 0.500000
vt 0.625000 1.000000
vt 0.841844 0.028269
vt 0.562500 0.500000
vt 0.562500 1.000000
vt 0.750000 0.010000
vt 0.500000 0.500000
vt 0.500000 1.000000
vt 0.750000 0.500000
vt 0.750000 1.000000
vt 0.750000 0.500000
vt 0.750000 0.250000
vt 0.990000 0.250000
vt 0.750000 0.500000
vt 0.750000 1.000000
vt 0.971731 0.158156
vt 0.687500 0.500000
vt 0.687500 1.000000
vt 0.919706 0.080294
vt 0.625000 0.500000
vt 0.625000 1.000000
vt 0.841844 0.028269
vt 0.562500 0.500000
vt 0.562500 1.000000
vt 0.750000 0.010000
vt 0.500000 0.500000
vt 0.500000 1.000000
s 0
f 1/1/1 4/5/1 2/2/1
f 2/3/2 4/6/2 5/7/2 3/4/2
f 1/1/1 6/8/1 4/5/1
f 4/6/3 6/9/3 7/10/3 5/7/3
f 1/1/1 8/11/1 6/8/1
f 6/9/4 8/12/4 9/13/4 7/10/4
f 1/1/1 10/14/1 8/11/1
f 8/12/5 10/15/5 11/16/5 9/13/5
f 2/3/6 3/4/6 13/18/6 12/17/6
f 11/16/7 10/15/7 17/22/7 18/24/7
f 2/3/1 12/17/1 14/19/1 1/1/1
f 14/19/1 15/20/1 16/21/1 1/1/1
f 1/1/1 16/21/1 17/23/1 10/15/1
f 19/25/1 20/26/1 22/29/1
f 20/27/8 21/28/8 23/31/8 22/30/8
f 19/25/1 22/29/1 24/32/1
f 22/30/9 23/31/9 25/34/9 24/33/9
f 19/25/1 24/32/1 26/35/1
f 24/33/10 25/34/10 27/37/10 26/36/10
f 19/25/1 26/35/1 28/38/1
f 26/36/11 27/37/11 29/40/11 28/39/11
f 20/27/6 12/17/6 13/18/6 21/28/6
f 29/40/12 32/44/12 31/42/12 28/39/12
f 20/27/1 19/25/1 14/19/1 12/17/1
f 14/19/1 19/25/1 30/41/1 15/20/1
f 19/25/1 28/39/1 31/43/1 30/41/1
f 33/45/1 34/46/1 36/49/1
f 34/47/13 35/48/13 37/51/13 36/50/13
f 33/45/1 36/49/1 38/52/1
f 36/50/14 37/51/14 39/54/14 38/53/14
f 33/45/1 38/52/1 40/55/1
f 38/53/15 39/54/15 41/57/15 40/56/15
f 33/45/1 40/55/1 42/58/1
f 40/56/16 41/57/16 43/60/16 42/59/16
f 34/47/17 44/61/17 45/62/17 35/48/17
f 43/60/7 18/24/7 17/22/7 42/59/7
f 34/47/1 33/45/1 46/63/1 44/61/1
f 46/63/1 33/45/1 16/21/1 15/20/1
f 33/45/1 42/59/1 17/23/1 16/21/1
f 47/64/1 50/68/1 48/65/1
f 48/66/18 50/69/18 51/70/18 49/67/18
f 47/64/1 52/71/1 50/68/1
f 50/69/19 52/72/19 53/73/19 51/70/19
f 47/64/1 54/74/1 52/71/1
f 52/72/20 54/75/20 55/76/20 53/73/20
f 47/64/1 56/77/1 54/74/1
f 54/75/21 56/78/21 57/79/21 55/76/21
f 48/66/17 49/67/17 45/62/17 44/61/17
f 57/79/12 56/78/12 31/42/12 32/44/12
f 48/66/1 44/61/1 46/63/1 47/64/1
f 46/63/1 15/20/1 30/41/1 47/64/1
f 47/64/1 30/41/1 31/43/1 56/78/1
