# Blender 3.4.1
# www.blender.org
mtllib StandPillar.mtl
o Cube
v 0.000000 0.021596 -0.224407
v 0.000000 0.103199 -0.204006
v 0.255008 0.021596 -0.255008
v 0.255008 0.001196 -0.255008
v 0.224407 0.021596 -0.000000
v 0.204006 0.103199 -0.000000
v 0.255008 0.021596 -0.000000
v 0.255008 0.001196 -0.000000
v 0.204006 0.103199 -0.204006
v 0.224407 0.021596 -0.224407
v 0.000000 0.001196 -0.255008
v 0.000000 0.021596 -0.255008
v 0.000000 0.113399 -0.204006
v 0.204006 0.113399 -0.000000
v 0.204006 0.113399 -0.204006
v 0.214206 0.103199 -0.000000
v 0.214206 0.103199 -0.204006
v 0.214206 0.113399 -0.000000
v 0.214206 0.113399 -0.204006
v 0.000000 0.103199 -0.214207
v 0.204006 0.103199 -0.214207
v 0.000000 0.113399 -0.214207
v 0.204006 0.113399 -0.214207
v 0.214206 0.103199 -0.214207
v 0.214206 0.113399 -0.214207
v 0.000000 0.133800 -0.204006
v 0.204006 0.133800 -0.000000
v 0.204006 0.133800 -0.204007
v 0.000000 0.144000 -0.204006
v 0.204006 0.144000 -0.000000
v 0.193806 0.144000 -0.193806
v 0.209106 0.133800 -0.000000
v 0.209106 0.133800 -0.204006
v 0.209106 0.144000 -0.000000
v 0.209106 0.144000 -0.204006
v 0.000000 0.133800 -0.209107
v 0.204006 0.133800 -0.209107
v 0.000000 0.144000 -0.209107
v 0.204006 0.144000 -0.209107
v 0.209106 0.133800 -0.209107
v 0.209106 0.144000 -0.209107
v 0.204006 0.144000 -0.204006
v 0.193806 0.144000 -0.000000
v 0.000000 0.144000 -0.193806
v 0.173405 0.256204 -0.173405
v 0.173405 0.256204 -0.000000
v 0.000000 0.256204 -0.173405
v 0.163205 0.266404 -0.163205
v 0.163205 0.266404 -0.000000
v 0.000000 0.266404 -0.163205
v 0.173405 0.256204 -0.183606
v 0.000000 0.256204 -0.183606
v 0.173405 0.266404 -0.183606
v 0.000000 0.266404 -0.183606
v 0.183606 0.256204 -0.173405
v 0.183606 0.256204 -0.000000
v 0.183606 0.266404 -0.173405
v 0.183606 0.266404 -0.000000
v 0.183606 0.256204 -0.183606
v 0.183606 0.266404 -0.183606
v 0.000000 0.266404 -0.173405
v 0.173405 0.266404 -0.173405
v 0.173405 0.266404 -0.000000
v 0.163205 1.243928 -0.163205
v 0.163205 1.243928 -0.000000
v 0.000000 1.527103 -0.163205
v -0.255008 0.021596 -0.255008
v -0.255008 0.001196 -0.255008
v -0.224407 0.021596 -0.000000
v -0.204006 0.103199 -0.000000
v -0.255008 0.021596 -0.000000
v -0.255008 0.001196 -0.000000
v -0.204006 0.103199 -0.204006
v -0.224407 0.021596 -0.224407
v -0.204006 0.113399 -0.000000
v -0.204006 0.113399 -0.204006
v -0.214206 0.103199 -0.000000
v -0.214206 0.103199 -0.204006
v -0.214206 0.113399 -0.000000
v -0.214206 0.113399 -0.204006
v -0.204006 0.103199 -0.214207
v -0.204006 0.113399 -0.214207
v -0.214206 0.103199 -0.214207
v -0.214206 0.113399 -0.214207
v -0.204006 0.133800 -0.000000
v -0.204006 0.133800 -0.204007
v -0.204006 0.144000 -0.000000
v -0.193806 0.144000 -0.193806
v -0.209106 0.133800 -0.000000
v -0.209106 0.133800 -0.204006
v -0.209106 0.144000 -0.000000
v -0.209106 0.144000 -0.204006
v -0.204006 0.133800 -0.209107
v -0.204006 0.144000 -0.209107
v -0.209106 0.133800 -0.209107
v -0.209106 0.144000 -0.209107
v -0.204006 0.144000 -0.204006
v -0.193806 0.144000 -0.000000
v -0.173405 0.256204 -0.173405
v -0.173405 0.256204 -0.000000
v -0.163205 0.266404 -0.163205
v -0.163205 0.266404 -0.000000
v -0.173405 0.256204 -0.183606
v -0.173405 0.266404 -0.183606
v -0.183606 0.256204 -0.173405
v -0.183606 0.256204 -0.000000
v -0.183606 0.266404 -0.173405
v -0.183606 0.266404 -0.000000
v -0.183606 0.256204 -0.183606
v -0.183606 0.266404 -0.183606
v -0.173405 0.266404 -0.173405
v -0.173405 0.266404 -0.000000
v -0.163205 1.810277 -0.163205
v -0.163205 1.810277 -0.000000
v 0.000000 0.021596 0.224407
v 0.000000 0.103199 0.204006
v 0.255008 0.021596 0.255007
v 0.255008 0.001196 0.255007
v 0.204006 0.103199 0.204006
v 0.224407 0.021596 0.224407
v 0.000000 0.001196 0.255007
v 0.000000 0.021596 0.255007
v 0.000000 0.113399 0.204006
v 0.204006 0.113399 0.204006
v 0.214206 0.103199 0.204006
v 0.214206 0.113399 0.204006
v 0.000000 0.103199 0.214206
v 0.204006 0.103199 0.214206
v 0.000000 0.113399 0.214206
v 0.204006 0.113399 0.214206
v 0.214206 0.103199 0.214206
v 0.214206 0.113399 0.214206
v 0.000000 0.133800 0.204006
v 0.204006 0.133800 0.204006
v 0.000000 0.144000 0.204006
v 0.193806 0.144000 0.193806
v 0.209106 0.133800 0.204006
v 0.209106 0.144000 0.204006
v 0.000000 0.133800 0.209106
v 0.204006 0.133800 0.209106
v 0.000000 0.144000 0.209106
v 0.204006 0.144000 0.209106
v 0.209106 0.133800 0.209106
v 0.209106 0.144000 0.209106
v 0.204006 0.144000 0.204006
v 0.000000 0.144000 0.193806
v 0.173405 0.256204 0.173405
v 0.000000 0.256204 0.173405
v 0.163205 0.266404 0.163205
v 0.000000 0.266404 0.163205
v 0.173405 0.256204 0.183605
v 0.000000 0.256204 0.183605
v 0.173405 0.266404 0.183605
v 0.000000 0.266404 0.183605
v 0.183606 0.256204 0.173405
v 0.183606 0.266404 0.173405
v 0.183606 0.256204 0.183605
v 0.183606 0.266404 0.183605
v 0.000000 0.266404 0.173405
v 0.173405 0.266404 0.173405
v 0.163205 1.243928 0.163205
v 0.000000 1.527103 0.163205
v -0.255008 0.021596 0.255007
v -0.255008 0.001196 0.255007
v -0.204006 0.103199 0.204006
v -0.224407 0.021596 0.224407
v -0.204006 0.113399 0.204006
v -0.214206 0.103199 0.204006
v -0.214206 0.113399 0.204006
v -0.204006 0.103199 0.214206
v -0.204006 0.113399 0.214206
v -0.214206 0.103199 0.214206
v -0.214206 0.113399 0.214206
v -0.204006 0.133800 0.204006
v -0.193806 0.144000 0.193806
v -0.209106 0.133800 0.204006
v -0.209106 0.144000 0.204006
v -0.204006 0.133800 0.209106
v -0.204006 0.144000 0.209106
v -0.209106 0.133800 0.209106
v -0.209106 0.144000 0.209106
v -0.204006 0.144000 0.204006
v -0.173405 0.256204 0.173405
v -0.163205 0.266404 0.163205
v -0.173405 0.256204 0.183605
v -0.173405 0.266404 0.183605
v -0.183606 0.256204 0.173405
v -0.183606 0.266404 0.173405
v -0.183606 0.256204 0.183605
v -0.183606 0.266404 0.183605
v -0.173405 0.266404 0.173405
v -0.163205 1.810277 0.163205
vn 1.0000 -0.0000 -0.0000
vn -0.0000 0.2425 -0.9701
vn -0.0000 1.0000 -0.0000
vn 0.9701 0.2425 -0.0000
vn -0.0000 -0.0000 -1.0000
vn -0.0000 -1.0000 -0.0000
vn -0.0000 0.1789 -0.9839
vn 0.9839 0.1789 -0.0000
vn -1.0000 -0.0000 -0.0000
vn -0.9701 0.2425 -0.0000
vn -0.9839 0.1789 -0.0000
vn -0.0000 0.2425 0.9701
vn -0.0000 -0.0000 1.0000
vn -0.0000 0.1789 0.9839
vt 0.875000 0.625000
vt 0.875000 0.625000
vt 0.625000 0.250000
vt 0.875000 0.750000
vt 0.375000 0.250000
vt 0.625000 0.750000
vt 0.625000 0.375000
vt 0.625000 0.375000
vt 0.625000 0.375000
vt 0.375000 0.375000
vt 0.625000 0.250000
vt 0.875000 0.750000
vt 0.875000 0.750000
vt 0.625000 0.250000
vt 0.625000 0.625000
vt 0.875000 0.625000
vt 0.375000 0.625000
vt 0.250000 0.500000
vt 0.375000 0.500000
vt 0.625000 0.375000
vt 0.625000 0.250000
vt 0.625000 0.375000
vt 0.250000 0.500000
vt 0.625000 0.250000
vt 0.375000 0.500000
vt 0.875000 0.625000
vt 0.625000 0.250000
vt 0.875000 0.750000
vt 0.875000 0.625000
vt 0.375000 0.625000
vt 0.875000 0.750000
vt 0.375000 0.500000
vt 0.875000 0.750000
vt 0.625000 0.250000
vt 0.875000 0.750000
vt 0.625000 0.250000
vt 0.375000 0.500000
vt 0.375000 0.625000
vt 0.250000 0.500000
vt 0.375000 0.500000
vt 0.000000 0.000000
vt 0.000000 0.000000
vt 0.000000 0.000000
vt 0.250000 0.500000
vt 0.375000 0.500000
vt 0.000000 0.000000
vt 0.250000 0.500000
vt 0.375000 0.500000
vt 0.000000 0.000000
vt 0.375000 0.625000
vt 0.375000 0.500000
vt 0.375000 0.625000
vt 0.000000 0.000000
vt 0.375000 0.500000
vt 0.000000 0.000000
vt 0.375000 0.500000
vt 0.375000 0.500000
vt 0.000000 0.000000
vt 0.000000 0.000000
vt 0.000000 0.000000
vt 0.000000 0.000000
vt 0.000000 0.000000
vt 0.000000 0.000000
vt 0.000000 0.000000
vt 0.000000 0.000000
vt 0.000000 0.000000
vt 0.000000 0.000000
vt 0.000000 0.000000
vt 0.000000 0.000000
vt 0.000000 0.000000
vt 0.000000 0.000000
vt 0.000000 0.000000
vt 0.000000 0.000000
vt 0.000000 0.000000
vt 0.000000 0.000000
vt 0.000000 0.000000
vt 0.000000 0.000000
vt 0.000000 0.000000
vt 0.000000 0.000000
vt 0.000000 0.000000
vt 0.000000 0.000000
vt 0.000000 0.000000
vt 0.000000 0.000000
vt 0.625000 0.250000
vt 0.875000 0.750000
vt 0.375000 0.250000
vt 0.625000 0.750000
vt 0.625000 0.375000
vt 0.625000 0.375000
vt 0.625000 0.375000
vt 0.375000 0.375000
vt 0.625000 0.250000
vt 0.875000 0.750000
vt 0.875000 0.750000
vt 0.625000 0.250000
vt 0.250000 0.500000
vt 0.375000 0.500000
vt 0.625000 0.375000
vt 0.625000 0.250000
vt 0.625000 0.375000
vt 0.250000 0.500000
vt 0.625000 0.250000
vt 0.375000 0.500000
vt 0.625000 0.250000
vt 0.875000 0.750000
vt 0.875000 0.750000
vt 0.375000 0.500000
vt 0.875000 0.750000
vt 0.625000 0.250000
vt 0.875000 0.750000
vt 0.625000 0.250000
vt 0.375000 0.500000
vt 0.250000 0.500000
vt 0.375000 0.500000
vt 0.000000 0.000000
vt 0.000000 0.000000
vt 0.250000 0.500000
vt 0.375000 0.500000
vt 0.000000 0.000000
vt 0.250000 0.500000
vt 0.375000 0.500000
vt 0.000000 0.000000
vt 0.375000 0.500000
vt 0.375000 0.500000
vt 0.000000 0.000000
vt 0.375000 0.500000
vt 0.375000 0.500000
vt 0.000000 0.000000
vt 0.000000 0.000000
vt 0.000000 0.000000
vt 0.000000 0.000000
vt 0.000000 0.000000
vt 0.000000 0.000000
vt 0.000000 0.000000
vt 0.000000 0.000000
vt 0.000000 0.000000
vt 0.000000 0.000000
vt 0.000000 0.000000
vt 0.000000 0.000000
vt 0.000000 0.000000
vt 0.000000 0.000000
vt 0.000000 0.000000
vt 0.000000 0.000000
vt 0.000000 0.000000
vt 0.000000 0.000000
vt 0.000000 0.000000
vt 0.875000 0.625000
vt 0.875000 0.625000
vt 0.625000 0.250000
vt 0.875000 0.750000
vt 0.375000 0.250000
vt 0.625000 0.750000
vt 0.625000 0.250000
vt 0.875000 0.750000
vt 0.875000 0.750000
vt 0.625000 0.250000
vt 0.625000 0.625000
vt 0.875000 0.625000
vt 0.375000 0.625000
vt 0.375000 0.500000
vt 0.625000 0.250000
vt 0.625000 0.250000
vt 0.375000 0.500000
vt 0.875000 0.625000
vt 0.625000 0.250000
vt 0.875000 0.750000
vt 0.875000 0.625000
vt 0.375000 0.625000
vt 0.875000 0.750000
vt 0.375000 0.500000
vt 0.875000 0.750000
vt 0.625000 0.250000
vt 0.875000 0.750000
vt 0.625000 0.250000
vt 0.375000 0.500000
vt 0.375000 0.625000
vt 0.375000 0.500000
vt 0.000000 0.000000
vt 0.000000 0.000000
vt 0.375000 0.500000
vt 0.375000 0.500000
vt 0.000000 0.000000
vt 0.375000 0.625000
vt 0.375000 0.500000
vt 0.375000 0.625000
vt 0.000000 0.000000
vt 0.375000 0.500000
vt 0.000000 0.000000
vt 0.375000 0.500000
vt 0.375000 0.500000
vt 0.000000 0.000000
vt 0.000000 0.000000
vt 0.000000 0.000000
vt 0.000000 0.000000
vt 0.000000 0.000000
vt 0.000000 0.000000
vt 0.000000 0.000000
vt 0.000000 0.000000
vt 0.000000 0.000000
vt 0.000000 0.000000
vt 0.000000 0.000000
vt 0.000000 0.000000
vt 0.000000 0.000000
vt 0.000000 0.000000
vt 0.000000 0.000000
vt 0.000000 0.000000
vt 0.000000 0.000000
vt 0.000000 0.000000
vt 0.000000 0.000000
vt 0.625000 0.250000
vt 0.875000 0.750000
vt 0.375000 0.250000
vt 0.625000 0.750000
vt 0.625000 0.250000
vt 0.875000 0.750000
vt 0.875000 0.750000
vt 0.625000 0.250000
vt 0.375000 0.500000
vt 0.625000 0.250000
vt 0.625000 0.250000
vt 0.375000 0.500000
vt 0.625000 0.250000
vt 0.875000 0.750000
vt 0.875000 0.750000
vt 0.375000 0.500000
vt 0.875000 0.750000
vt 0.625000 0.250000
vt 0.875000 0.750000
vt 0.625000 0.250000
vt 0.375000 0.500000
vt 0.375000 0.500000
vt 0.000000 0.000000
vt 0.375000 0.500000
vt 0.375000 0.500000
vt 0.000000 0.000000
vt 0.375000 0.500000
vt 0.375000 0.500000
vt 0.000000 0.000000
vt 0.375000 0.500000
vt 0.375000 0.500000
vt 0.000000 0.000000
vt 0.000000 0.000000
vt 0.000000 0.000000
vt 0.000000 0.000000
vt 0.000000 0.000000
vt 0.000000 0.000000
vt 0.000000 0.000000
vt 0.000000 0.000000
vt 0.000000 0.000000
vt 0.000000 0.000000
vt 0.000000 0.000000
vt 0.000000 0.000000
s 0
usemtl Plaster
f 4/5/1 3/3/1 7/9/1 8/10/1
f 10/13/2 1/1/2 2/2/2 9/12/2
f 3/4/3 12/16/3 1/1/3 10/13/3
f 7/9/3 3/3/3 10/14/3 5/7/3
f 5/7/4 10/14/4 9/11/4 6/8/4
f 11/15/5 12/16/5 3/4/5 4/6/5
f 17/21/6 9/11/6 21/27/6 24/34/6
f 16/20/1 17/21/1 19/24/1 18/22/1
f 6/8/6 9/11/6 17/21/6 16/20/6
f 15/19/3 14/18/3 18/23/3 19/25/3
f 21/28/5 20/26/5 22/29/5 23/31/5
f 21/28/5 23/31/5 25/35/5 24/33/5
f 13/17/3 15/19/3 23/32/3 22/30/3
f 19/24/1 17/21/1 24/34/1 25/36/1
f 9/12/6 2/2/6 20/26/6 21/28/6
f 15/19/3 19/25/3 25/37/3 23/32/3
f 15/19/5 13/17/5 26/38/5 28/40/5
f 14/18/1 15/19/1 28/40/1 27/39/1
f 28/40/6 26/38/6 36/50/6 37/51/6
f 42/59/3 30/42/3 34/46/3 35/49/3
f 32/44/1 33/45/1 35/48/1 34/47/1
f 33/45/6 28/40/6 37/51/6 40/56/6
f 27/39/6 28/40/6 33/45/6 32/44/6
f 37/51/5 36/50/5 38/52/5 39/54/5
f 37/51/5 39/54/5 41/57/5 40/56/5
f 35/48/1 33/45/1 40/56/1 41/57/1
f 29/41/3 42/59/3 39/55/3 38/53/3
f 42/59/3 35/49/3 41/58/3 39/55/3
f 31/43/7 44/61/7 47/64/7 45/62/7
f 31/43/3 43/60/3 30/42/3 42/59/3
f 44/61/3 31/43/3 42/59/3 29/41/3
f 43/60/8 31/43/8 45/62/8 46/63/8
f 49/66/1 48/65/1 64/81/1 65/82/1
f 51/68/5 52/69/5 54/71/5 53/70/5
f 45/62/6 47/64/6 52/69/6 51/68/6
f 53/70/3 62/79/3 57/74/3 60/77/3
f 61/78/3 62/79/3 53/70/3 54/71/3
f 56/73/1 55/72/1 57/74/1 58/75/1
f 57/74/1 55/72/1 59/76/1 60/77/1
f 62/79/3 63/80/3 58/75/3 57/74/3
f 51/68/5 53/70/5 60/77/5 59/76/5
f 46/63/6 45/62/6 55/72/6 56/73/6
f 45/62/6 51/68/6 59/76/6 55/72/6
f 50/67/3 48/65/3 62/79/3 61/78/3
f 48/65/3 49/66/3 63/80/3 62/79/3
f 48/65/5 50/67/5 66/83/5 64/81/5
f 68/86/9 72/91/9 71/90/9 67/84/9
f 74/94/2 73/93/2 2/2/2 1/1/2
f 67/85/3 74/94/3 1/1/3 12/16/3
f 71/90/3 69/88/3 74/95/3 67/84/3
f 69/88/10 70/89/10 73/92/10 74/95/10
f 11/15/5 68/87/5 67/85/5 12/16/5
f 78/99/6 83/109/6 81/104/6 73/92/6
f 77/98/9 79/100/9 80/102/9 78/99/9
f 70/89/6 77/98/6 78/99/6 73/92/6
f 76/97/3 80/103/3 79/101/3 75/96/3
f 81/105/5 82/106/5 22/29/5 20/26/5
f 81/105/5 83/108/5 84/110/5 82/106/5
f 13/17/3 22/30/3 82/107/3 76/97/3
f 80/102/9 84/111/9 83/109/9 78/99/9
f 73/93/6 81/105/6 20/26/6 2/2/6
f 76/97/3 82/107/3 84/112/3 80/103/3
f 76/97/5 86/114/5 26/38/5 13/17/5
f 75/96/9 85/113/9 86/114/9 76/97/9
f 86/114/6 93/123/6 36/50/6 26/38/6
f 97/129/3 92/122/3 91/119/3 87/115/3
f 89/117/9 91/120/9 92/121/9 90/118/9
f 90/118/6 95/126/6 93/123/6 86/114/6
f 85/113/6 89/117/6 90/118/6 86/114/6
f 93/123/5 94/124/5 38/52/5 36/50/5
f 93/123/5 95/126/5 96/127/5 94/124/5
f 92/121/9 96/127/9 95/126/9 90/118/9
f 29/41/3 38/53/3 94/125/3 97/129/3
f 97/129/3 94/125/3 96/128/3 92/122/3
f 88/116/7 99/131/7 47/64/7 44/61/7
f 88/116/3 97/129/3 87/115/3 98/130/3
f 44/61/3 29/41/3 97/129/3 88/116/3
f 98/130/11 100/132/11 99/131/11 88/116/11
f 102/134/9 114/146/9 113/145/9 101/133/9
f 103/135/5 104/136/5 54/71/5 52/69/5
f 99/131/6 103/135/6 52/69/6 47/64/6
f 104/136/3 110/142/3 107/139/3 111/143/3
f 61/78/3 54/71/3 104/136/3 111/143/3
f 106/138/9 108/140/9 107/139/9 105/137/9
f 107/139/9 110/142/9 109/141/9 105/137/9
f 111/143/3 107/139/3 108/140/3 112/144/3
f 103/135/5 109/141/5 110/142/5 104/136/5
f 100/132/6 106/138/6 105/137/6 99/131/6
f 99/131/6 105/137/6 109/141/6 103/135/6
f 50/67/3 61/78/3 111/143/3 101/133/3
f 101/133/3 111/143/3 112/144/3 102/134/3
f 101/133/5 113/145/5 66/83/5 50/67/5
f 118/151/1 8/10/1 7/9/1 117/149/1
f 120/155/12 119/154/12 116/148/12 115/147/12
f 117/150/3 120/155/3 115/147/3 122/158/3
f 7/9/3 5/7/3 120/156/3 117/149/3
f 5/7/4 6/8/4 119/153/4 120/156/4
f 121/157/13 118/152/13 117/150/13 122/158/13
f 125/161/6 131/172/6 128/165/6 119/153/6
f 16/20/1 18/22/1 126/162/1 125/161/1
f 6/8/6 16/20/6 125/161/6 119/153/6
f 124/160/3 126/163/3 18/23/3 14/18/3
f 128/166/13 130/169/13 129/167/13 127/164/13
f 128/166/13 131/171/13 132/173/13 130/169/13
f 123/159/3 129/168/3 130/170/3 124/160/3
f 126/162/1 132/174/1 131/172/1 125/161/1
f 119/154/6 128/166/6 127/164/6 116/148/6
f 124/160/3 130/170/3 132/175/3 126/163/3
f 124/160/13 134/177/13 133/176/13 123/159/13
f 14/18/1 27/39/1 134/177/1 124/160/1
f 134/177/6 140/184/6 139/183/6 133/176/6
f 145/192/3 138/182/3 34/46/3 30/42/3
f 32/44/1 34/47/1 138/181/1 137/180/1
f 137/180/6 143/189/6 140/184/6 134/177/6
f 27/39/6 32/44/6 137/180/6 134/177/6
f 140/184/13 142/187/13 141/185/13 139/183/13
f 140/184/13 143/189/13 144/190/13 142/187/13
f 138/181/1 144/190/1 143/189/1 137/180/1
f 135/178/3 141/186/3 142/188/3 145/192/3
f 145/192/3 142/188/3 144/191/3 138/182/3
f 136/179/14 147/194/14 148/195/14 146/193/14
f 136/179/3 145/192/3 30/42/3 43/60/3
f 146/193/3 135/178/3 145/192/3 136/179/3
f 43/60/8 46/63/8 147/194/8 136/179/8
f 49/66/1 65/82/1 161/208/1 149/196/1
f 151/198/13 153/200/13 154/201/13 152/199/13
f 147/194/6 151/198/6 152/199/6 148/195/6
f 153/200/3 158/205/3 156/203/3 160/207/3
f 159/206/3 154/201/3 153/200/3 160/207/3
f 56/73/1 58/75/1 156/203/1 155/202/1
f 156/203/1 158/205/1 157/204/1 155/202/1
f 160/207/3 156/203/3 58/75/3 63/80/3
f 151/198/13 157/204/13 158/205/13 153/200/13
f 46/63/6 56/73/6 155/202/6 147/194/6
f 147/194/6 155/202/6 157/204/6 151/198/6
f 150/197/3 159/206/3 160/207/3 149/196/3
f 149/196/3 160/207/3 63/80/3 49/66/3
f 149/196/13 161/208/13 162/209/13 150/197/13
f 164/212/9 163/210/9 71/90/9 72/91/9
f 166/216/12 115/147/12 116/148/12 165/215/12
f 163/211/3 122/158/3 115/147/3 166/216/3
f 71/90/3 163/210/3 166/217/3 69/88/3
f 69/88/10 166/217/10 165/214/10 70/89/10
f 121/157/13 122/158/13 163/211/13 164/213/13
f 168/219/6 165/214/6 170/222/6 172/227/6
f 77/98/9 168/219/9 169/220/9 79/100/9
f 70/89/6 165/214/6 168/219/6 77/98/6
f 167/218/3 75/96/3 79/101/3 169/221/3
f 170/223/13 127/164/13 129/167/13 171/224/13
f 170/223/13 171/224/13 173/228/13 172/226/13
f 123/159/3 167/218/3 171/225/3 129/168/3
f 169/220/9 168/219/9 172/227/9 173/229/9
f 165/215/6 116/148/6 127/164/6 170/223/6
f 167/218/3 169/221/3 173/230/3 171/225/3
f 167/218/13 123/159/13 133/176/13 174/231/13
f 75/96/9 167/218/9 174/231/9 85/113/9
f 174/231/6 133/176/6 139/183/6 178/236/6
f 182/242/3 87/115/3 91/119/3 177/235/3
f 89/117/9 176/233/9 177/234/9 91/120/9
f 176/233/6 174/231/6 178/236/6 180/239/6
f 85/113/6 174/231/6 176/233/6 89/117/6
f 178/236/13 139/183/13 141/185/13 179/237/13
f 178/236/13 179/237/13 181/240/13 180/239/13
f 177/234/9 176/233/9 180/239/9 181/240/9
f 135/178/3 182/242/3 179/238/3 141/186/3
f 182/242/3 177/235/3 181/241/3 179/238/3
f 175/232/14 146/193/14 148/195/14 183/243/14
f 175/232/3 98/130/3 87/115/3 182/242/3
f 146/193/3 175/232/3 182/242/3 135/178/3
f 98/130/11 175/232/11 183/243/11 100/132/11
f 102/134/9 184/244/9 192/252/9 114/146/9
f 185/245/13 152/199/13 154/201/13 186/246/13
f 183/243/6 148/195/6 152/199/6 185/245/6
f 186/246/3 191/251/3 188/248/3 190/250/3
f 159/206/3 191/251/3 186/246/3 154/201/3
f 106/138/9 187/247/9 188/248/9 108/140/9
f 188/248/9 187/247/9 189/249/9 190/250/9
f 191/251/3 112/144/3 108/140/3 188/248/3
f 185/245/13 186/246/13 190/250/13 189/249/13
f 100/132/6 183/243/6 187/247/6 106/138/6
f 183/243/6 185/245/6 189/249/6 187/247/6
f 150/197/3 184/244/3 191/251/3 159/206/3
f 184/244/3 102/134/3 112/144/3 191/251/3
f 184/244/13 150/197/13 162/209/13 192/252/13
